<?xml version="1.0" encoding="UTF-8" standalone="no"?>
<svg
   width="300"
   height="285"
   version="1.1"
   viewBox="0 0 300 285"
   id="svg38"
   sodipodi:docname="opensteretmap-logo-radinfra-de.svg"
   inkscape:version="1.3.2 (091e20e, 2023-11-25)"
   xmlns:inkscape="http://www.inkscape.org/namespaces/inkscape"
   xmlns:sodipodi="http://sodipodi.sourceforge.net/DTD/sodipodi-0.dtd"
   xmlns="http://www.w3.org/2000/svg"
   xmlns:svg="http://www.w3.org/2000/svg"
   xmlns:rdf="http://www.w3.org/1999/02/22-rdf-syntax-ns#"
   xmlns:cc="http://creativecommons.org/ns#"
   xmlns:dc="http://purl.org/dc/elements/1.1/">
  <sodipodi:namedview
     id="namedview38"
     pagecolor="#ffffff"
     bordercolor="#000000"
     borderopacity="0.25"
     inkscape:showpageshadow="2"
     inkscape:pageopacity="0.0"
     inkscape:pagecheckerboard="0"
     inkscape:deskcolor="#d1d1d1"
     inkscape:zoom="0.82807018"
     inkscape:cx="150.34958"
     inkscape:cy="142.5"
     inkscape:window-width="1400"
     inkscape:window-height="847"
     inkscape:window-x="0"
     inkscape:window-y="25"
     inkscape:window-maximized="0"
     inkscape:current-layer="svg38" />
  <title
     id="title1">OpenStreetMap Parkraum Projekt Logo</title>
  <defs
     id="defs4">
    <style
       id="style1">.cls-1{fill:#2563eb;}.cls-1,.cls-2,.cls-3,.cls-4,.cls-5,.cls-6,.cls-7{stroke-width:0px;}.cls-2{fill:#9bc4ff;}.cls-3{fill:#b3b3b3;}.cls-8{clip-path:url(#clippath);}.cls-4,.cls-9,.cls-10,.cls-11,.cls-12{fill:none;}.cls-9{stroke-width:10px;}.cls-9,.cls-10,.cls-13{stroke:#000;}.cls-9,.cls-13{stroke-miterlimit:10;}.cls-14{clip-path:url(#clippath-1);}.cls-13{fill:#000;stroke-width:8.23px;}.cls-5{fill:#aad273;}.cls-6{fill:#e6ebbf;}.cls-11{stroke:#f3c571;stroke-width:5px;}.cls-7{fill:#fff;}.cls-12{stroke:#e08584;stroke-linecap:round;stroke-linejoin:round;stroke-width:6px;}</style>
    <clipPath
       id="clippath">
      <path
         class="cls-4"
         d="m46.05 55.28 15 50.25-14 47.75 13 54.25-12.5 58 206.36 0.28 11.89-58.53-12.75-54.2 16-47.54-14.48-50.55s-207.77 0.05-208.52 0.3z"
         id="path1" />
    </clipPath>
    <clipPath
       id="clippath-1">
      <path
         class="cls-4"
         d="m46.05 55.28 15 50.25-14 47.75 13 54.25-12.5 58 206.36 0.28 11.89-58.53-12.75-54.2s0.75-7.54 5.75-20.79l10.25-26.75-14.48-50.55s-207.77 0.05-208.52 0.3z"
         id="path2" />
    </clipPath>
    <clipPath
       id="clipPath16">
      <circle
         class="cls-3"
         cx="193.33"
         cy="139.83"
         r="66"
         id="circle2" />
    </clipPath>
    <clipPath
       id="clippath-2">
      <circle
         class="cls-2"
         cx="193.31"
         cy="139.84"
         r="66"
         id="circle3" />
    </clipPath>
    <clipPath
       id="clippath-3-7">
      <circle
         class="cls-2"
         cx="191.31"
         cy="138.84"
         r="66"
         id="circle4" />
    </clipPath>
  </defs>
  <g
     id="Farbe"
     transform="matrix(1.3407,0,0,1.3471,-61.742,-74.08)"
     style="display:inline">
    <path
       id="Karte_grün"
       class="cls-6"
       d="m 46.05,55.28 15,50.25 -14,47.75 13,54.25 -12.5,58 206.36,0.28 11.89,-58.53 -12.75,-54.2 16,-47.54 -14.48,-50.55 c 0,0 -207.77,0.05 -208.52,0.3 z" />
    <g
       class="cls-8"
       clip-path="url(#clippath)"
       id="g7">
      <path
         class="cls-5"
         d="m 81.55,260.78 c -6,-4.75 -17.25,-5.75 -18.25,-13.25 -1,-7.5 9.25,-10 13.75,-14.25 4.5,-4.25 2,-11.25 -2.25,-12.25 -0.27,-0.06 -0.54,-0.09 -0.81,-0.09 -4.03,-0.1 -7.67,4.35 -9.47,5.85 -2.55,2.14 -9.75,3.88 -19.4,4.77 l -12.32,40.73 53,7.25 c 0,0 1.75,-14 -4.25,-18.75 z"
         id="path4" />
      <path
         class="cls-5"
         d="m 89.88,120.86 c -1.95,-3.53 -5.81,-4.36 -10.91,-5.03 -5.1,-0.67 -12.52,-10.53 -17.84,-10.53 -9.67,0 -17.51,39.68 -17.51,39.68 l 4.31,14.21 c 0,0 12.38,-4.14 13.43,-11.72 1.06,-7.58 -5.3,-9.31 0.67,-13.97 5.96,-4.66 11.15,0.56 17.29,1.33 10.64,1.33 13.29,-9.69 10.9,-13.23 -0.15,-0.23 -0.2,-0.51 -0.33,-0.75 z"
         id="path5" />
      <path
         class="cls-5"
         d="m 269.67,44.08 c -19,-1.94 -114.25,-0.87 -122.19,-0.08 -8.87,0.89 -50.55,4.43 -26.6,40.79 12.59,19.12 -15.52,25.72 -7.54,39.46 4.41,7.59 12.86,7.09 11.47,21.68 3.07,12.71 56.67,-8.92 63.18,-8.38 l 21.73,-23.72 15.3,2.66 15.96,-23.28 4.73,8.42 c 1.38,0.09 22.32,-14.82 23.94,-12.41 0.01,0.02 0.02,0.03 0.03,0.05 v -45.2 z"
         id="path6" />
      <path
         class="cls-5"
         d="m 272.28,107.97 c -3.09,6.97 -9.59,16.41 -10.88,21.64 l 0.03,3.67 c 2.55,18.85 -5.44,36.39 -19.49,51.23 0,0 -16.25,14.71 -14.37,14.9 -10.64,7.98 -8.78,27.88 -9.02,31.87 -0.25,4.25 -4.78,5.72 -8.28,11.25 -3.99,6.32 -0.84,21.03 9.91,36.03 l 52.32,-0.89 c 0,0 -0.35,-100.75 -0.23,-169.69 z"
         id="path7" />
      <path
         id="Wasser"
         class="cls-2"
         d="m 196.55,115.83 c -13.75,-2.22 -47.44,1.33 -65.05,19.03 -10.73,10.79 -15.27,38.93 -17.07,44.78 -1.8,5.85 -14.48,20.94 -16.98,23.69 -2.5,2.75 -13.18,4.07 -18.95,5.11 -6.83,1.24 -14.06,6.15 -16.57,7.92 -2.51,1.77 -6.43,1.55 -8.93,2.9 -0.05,0.18 -0.33,5.03 -0.46,5.57 4.98,-1.6 13.27,-4.37 17.98,-8.25 5.36,-4.41 19.61,-4.55 26.71,-7.87 7.09,-3.33 13.22,-20.39 25.47,-24.39 12.25,-4 19.84,12.21 23.62,18.55 3.49,5.86 6.8,10.92 9.39,14.84 2.65,4 8,13.19 8.68,15.16 1.7,4.91 -13.87,17.87 -15.52,20.28 -1.65,2.41 -3.2,14.36 -3.59,16.8 l 4.75,-1.5 c 0,0 0.91,-11 3.05,-13.86 2.91,-3.88 11.03,-9.81 15.41,-16.29 0.72,0.94 4.66,3.55 16.8,12.86 6.31,5.49 5.31,12.64 6.48,15.3 l 5.49,0.17 c -1.22,-4.32 -1.21,-11.79 -5.32,-16.3 -5,-5.5 -15.8,-10.8 -24.17,-21.14 -2.3,-2.84 -4.7,-8.11 -7.55,-12.72 -0.58,-0.95 -2.21,-3.6 -3.62,-6.25 -3.73,-10.6 8.07,-19.25 7.41,-31.22 -0.66,-11.92 -3.4,-24.82 6.6,-26.82 10,-2 16.33,9.4 26.33,12.65 10,3.25 21.5,-15.75 19.75,-27 -1.2,-7.73 -6.4,-19.79 -20.15,-22 z" />
    </g>
    <g
       class="cls-14"
       clip-path="url(#clippath-1)"
       id="g11">
      <path
         class="cls-11"
         d="m 125.57,239.44 c 2.58,7.48 -16.93,14.95 -5.85,28.14"
         id="path8" />
      <path
         id="AZ"
         class="cls-12"
         d="m 96.72,54.1 c 0,0 -17.08,25.99 -13.42,34.18 3.66,8.19 23.94,11.85 20.95,21.83 -2.2,7.33 -21.06,3.89 -24.94,13.3 -3.88,9.41 27.15,21.07 18.29,34.92 -7.83,12.23 -2.3,25.04 5.32,33.25 8.65,9.31 18.48,13 19.12,20.25 -1.58,3.59 -1.77,8.31 -2,13.41 0,20.29 17.03,21.68 30.22,4.1 5.2,-6.93 12.71,-11.56 16.01,-11.25 3.3,0.31 8.48,4.99 12.47,8.48 3.77,3.3 13.22,11.59 23.11,7.32 16.41,-7.09 -1.82,-37.13 6.09,-57.75 10.2,-26.6 36.36,-28.38 48.77,-44.78" />
      <line
         class="cls-10"
         x1="102.47"
         x2="107.1"
         y1="195.64"
         y2="199.69"
         id="line8" />
      <line
         class="cls-10"
         x1="106.4"
         x2="111.01"
         y1="190.67999"
         y2="194.75"
         id="line9" />
      <line
         class="cls-10"
         x1="155.73"
         x2="160.99001"
         y1="219.42999"
         y2="216.23"
         id="line10" />
      <line
         class="cls-10"
         x1="159.02"
         x2="164.31"
         y1="224.83"
         y2="221.67999"
         id="line11" />
    </g>
    <g
       id="houses">
      <rect
         class="cls-3"
         transform="rotate(66.61,69.684,203.87)"
         x="67.160004"
         y="198.39999"
         width="5.0500002"
         height="10.97"
         id="rect11" />
      <rect
         class="cls-3"
         transform="rotate(84.8,81.8,200.09)"
         x="79.389999"
         y="196.71001"
         width="4.8299999"
         height="6.7399998"
         id="rect12" />
      <polygon
         class="cls-3"
         points="113.82,168.42 110.68,180.33 107.79,184.59 102.97,181.31 105.53,177.54 108.01,167.25 "
         id="polygon12" />
      <rect
         class="cls-3"
         transform="rotate(-62.06,96.35,78.371)"
         x="93.18"
         y="73.809998"
         width="6.3299999"
         height="9.1099997"
         id="rect13" />
      <rect
         class="cls-3"
         transform="rotate(28.24,100.86,66.244)"
         x="97.790001"
         y="59.34"
         width="6.1799998"
         height="13.84"
         id="rect14" />
    </g>
    <path
       class="cls-4"
       d="m 46.05,55.28 15,50.25 -14,47.75 13,54.25 -12.5,58 206.36,0.28 11.89,-58.53 -12.75,-54.2 16,-47.54 -14.48,-50.55 c 0,0 -207.77,0.05 -208.52,0.3 z"
       stroke="#cccccc"
       stroke-width=".74152"
       id="path14" />
  </g>
  <g
     transform="matrix(0.37774,0,0,0.38058,131.63,53.021)"
     id="g36"
     style="display:inline">
    <circle
       class="cls-1"
       cx="174.91"
       cy="153.14"
       r="229.32001"
       fill="#376feb"
       stroke-width="0px"
       id="circle35" />
    <path
       d="m 296.67,235.48 c -27.695,7.1446 -55.945,-9.5122 -63.093,-37.207 h 53.379 c 0.91643,0 1.805,-0.19482 2.632,-0.55563 3.2692,-1.4562 4.7412,-5.28 3.2692,-8.5501 l -23.882,-53.467 c 0.59837,-0.19085 1.1957,-0.34987 1.7981,-0.50891 27.683,-7.1486 55.933,9.5003 63.093,37.196 7.1446,27.695 -9.5123,55.945 -37.196,63.089 z m -39.56,-94.578 19.859,44.433 h -45.043 c 0,-18.205 9.5779,-35.08 25.183,-44.433 z m -38.121,44.433 h -12.948 l 32.366,-86.308 13.411,29.99 c -20.287,11.488 -32.828,32.999 -32.828,56.318 z m -26.519,-0.6908 -81.062,-89.927 h 114.78 z m -68.723,22.065 c -11.807,26.057 -42.488,37.592 -68.545,25.796 -26.045,-11.807 -37.593,-42.5 -25.785,-68.545 9.7617,-21.541 32.886,-33.732 56.171,-29.617 l -15.185,49.069 c -1.0685,3.4292 0.84586,7.0472 4.2631,8.1078 3.4123,1.0516 7.0432,-0.85878 8.0949,-4.2631 l 15.201,-49.081 c 26.041,11.795 37.589,42.488 25.785,68.533 z m 221.51,-41.436 c -11.081,-33.993 -47.621,-52.563 -81.603,-41.478 l -18.784,-42.026 4.8615,-12.949 h 14.568 v -12.936 h -55.018 c -1.5019,0 -2.807,1.0168 -3.1568,2.477 -0.41844,1.7434 0.661,3.4829 2.4004,3.9023 l 27.376,6.5612 -4.8486,12.945 h -115.63 l 5.1905,-16.769 c 1.6858,-5.4281 6.6944,-9.1167 12.371,-9.1167 h 21.273 V 42.935 h -21.273 c -11.353,0 -21.382,7.3852 -24.733,18.233 l -18.804,60.737 c -30.173,-6.1268 -60.481,9.8502 -72.478,38.201 -13.935,32.921 1.4711,70.91 34.389,84.841 32.921,13.93 70.905,-1.4602 84.84,-34.377 13.931,-32.921 -1.4601,-70.91 -34.393,-84.841 l 5.1488,-16.625 76.524,84.907 c 2.4581,2.7255 5.9489,4.2631 9.6136,4.2631 h 27.21 c 0.48605,2.4223 1.1182,4.7949 1.8796,7.1248 11.081,33.997 47.621,52.567 81.603,41.482 33.997,-11.07 52.552,-47.609 41.482,-81.607"
       fill="#ffffff"
       id="path35" />
  </g>
  <g
     id="Lupe"
     transform="matrix(1.3453,0,0,1.3453,-61.951,-73.978)"
     style="display:inline">
    <path
       class="cls-13"
       d="M 89.28,254.17 78.99,243.88 c -0.68,-0.68 -0.77,-1.69 -0.21,-2.26 l 62.78,-56.4 c 0.56,-0.56 1.58,-0.47 2.26,0.21 l 3.91,3.91 c 0.68,0.68 0.77,1.69 0.21,2.26 l -56.4,62.78 c -0.56,0.56 -1.58,0.47 -2.26,-0.21 z"
       id="path38" />
    <circle
       class="cls-9"
       cx="193.33"
       cy="139.83"
       r="66"
       stroke-width="11.5"
       id="circle38" />
  </g>
  <metadata
     id="metadata38">
    <rdf:RDF>
      <cc:Work
         rdf:about="">
        <cc:license
           rdf:resource="http://creativecommons.org/publicdomain/zero/1.0/" />
        <dc:date>2024</dc:date>
        <dc:title>OpenStreetMap Parkraum Projekt Logo</dc:title>
      </cc:Work>
      <cc:License
         rdf:about="http://creativecommons.org/publicdomain/zero/1.0/">
        <cc:permits
           rdf:resource="http://creativecommons.org/ns#Reproduction" />
        <cc:permits
           rdf:resource="http://creativecommons.org/ns#Distribution" />
        <cc:permits
           rdf:resource="http://creativecommons.org/ns#DerivativeWorks" />
      </cc:License>
    </rdf:RDF>
  </metadata>
</svg>
