<svg width="300" height="285" version="1.1" id="svg38" xmlns="http://www.w3.org/2000/svg">
   <title id="title1">OpenStreetMap radinfra.de Projekt Logo</title>
   <defs id="defs4">
      <clipPath id="clippath">
         <path class="cls-4"
            d="m46.05 55.28 15 50.25-14 47.75 13 54.25-12.5 58 206.36.28 11.89-58.53-12.75-54.2 16-47.54-14.48-50.55s-207.77.05-208.52.3z"
            id="path1" />
      </clipPath>
      <clipPath id="clippath-1">
         <path class="cls-4"
            d="m46.05 55.28 15 50.25-14 47.75 13 54.25-12.5 58 206.36.28 11.89-58.53-12.75-54.2s.75-7.54 5.75-20.79l10.25-26.75-14.48-50.55s-207.77.05-208.52.3z"
            id="path2" />
      </clipPath>
      <clipPath id="clipPath16">
         <circle class="cls-3" cx="193.33" cy="139.83" r="66" id="circle2" />
      </clipPath>
      <clipPath id="clippath-2">
         <circle class="cls-2" cx="193.31" cy="139.84" r="66" id="circle3" />
      </clipPath>
      <clipPath id="clippath-3-7">
         <circle class="cls-2" cx="191.31" cy="138.84" r="66" id="circle4" />
      </clipPath>
      <style id="style1">
         .cls-2,.cls-3,.cls-4,.cls-5{stroke-width:0}.cls-2{fill:#9bc4ff}.cls-3{fill:#b3b3b3}.cls-10,.cls-4{fill:none}.cls-10{stroke:#000}.cls-5{fill:#aad273}</style>
   </defs>
   <g id="Farbe" transform="matrix(1.3407 0 0 1.3471 -61.742 -74.08)" style="display:inline">
      <path id="Karte_grün"
         d="m46.05 55.28 15 50.25-14 47.75 13 54.25-12.5 58 206.36.28 11.89-58.53-12.75-54.2 16-47.54-14.48-50.55s-207.77.05-208.52.3z"
         style="fill:#e6ebbf;stroke-width:0" />
      <g clip-path="url(#clippath)" id="g7" style="clip-path:url(#clippath)">
         <path class="cls-5"
            d="M81.55 260.78c-6-4.75-17.25-5.75-18.25-13.25s9.25-10 13.75-14.25 2-11.25-2.25-12.25c-.27-.06-.54-.09-.81-.09-4.03-.1-7.67 4.35-9.47 5.85-2.55 2.14-9.75 3.88-19.4 4.77L32.8 272.29l53 7.25s1.75-14-4.25-18.75z"
            id="path4" />
         <path class="cls-5"
            d="M89.88 120.86c-1.95-3.53-5.81-4.36-10.91-5.03-5.1-.67-12.52-10.53-17.84-10.53-9.67 0-17.51 39.68-17.51 39.68l4.31 14.21s12.38-4.14 13.43-11.72c1.06-7.58-5.3-9.31.67-13.97 5.96-4.66 11.15.56 17.29 1.33 10.64 1.33 13.29-9.69 10.9-13.23-.15-.23-.2-.51-.33-.75z"
            id="path5" />
         <path class="cls-5"
            d="M269.67 44.08c-19-1.94-114.25-.87-122.19-.08-8.87.89-50.55 4.43-26.6 40.79 12.59 19.12-15.52 25.72-7.54 39.46 4.41 7.59 12.86 7.09 11.47 21.68 3.07 12.71 56.67-8.92 63.18-8.38l21.73-23.72 15.3 2.66 15.96-23.28 4.73 8.42c1.38.09 22.32-14.82 23.94-12.41.01.02.02.03.03.05v-45.2z"
            id="path6" />
         <path class="cls-5"
            d="M272.28 107.97c-3.09 6.97-9.59 16.41-10.88 21.64l.03 3.67c2.55 18.85-5.44 36.39-19.49 51.23 0 0-16.25 14.71-14.37 14.9-10.64 7.98-8.78 27.88-9.02 31.87-.25 4.25-4.78 5.72-8.28 11.25-3.99 6.32-.84 21.03 9.91 36.03l52.32-.89s-.35-100.75-.23-169.69z"
            id="path7" />
         <path id="Wasser" class="cls-2"
            d="M196.55 115.83c-13.75-2.22-47.44 1.33-65.05 19.03-10.73 10.79-15.27 38.93-17.07 44.78-1.8 5.85-14.48 20.94-16.98 23.69s-13.18 4.07-18.95 5.11c-6.83 1.24-14.06 6.15-16.57 7.92-2.51 1.77-6.43 1.55-8.93 2.9-.05.18-.33 5.03-.46 5.57 4.98-1.6 13.27-4.37 17.98-8.25 5.36-4.41 19.61-4.55 26.71-7.87 7.09-3.33 13.22-20.39 25.47-24.39 12.25-4 19.84 12.21 23.62 18.55 3.49 5.86 6.8 10.92 9.39 14.84 2.65 4 8 13.19 8.68 15.16 1.7 4.91-13.87 17.87-15.52 20.28-1.65 2.41-3.2 14.36-3.59 16.8l4.75-1.5s.91-11 3.05-13.86c2.91-3.88 11.03-9.81 15.41-16.29.72.94 4.66 3.55 16.8 12.86 6.31 5.49 5.31 12.64 6.48 15.3l5.49.17c-1.22-4.32-1.21-11.79-5.32-16.3-5-5.5-15.8-10.8-24.17-21.14-2.3-2.84-4.7-8.11-7.55-12.72-.58-.95-2.21-3.6-3.62-6.25-3.73-10.6 8.07-19.25 7.41-31.22-.66-11.92-3.4-24.82 6.6-26.82s16.33 9.4 26.33 12.65 21.5-15.75 19.75-27c-1.2-7.73-6.4-19.79-20.15-22z" />
      </g>
      <g clip-path="url(#clippath-1)" id="g11" style="clip-path:url(#clippath-1)">
         <path d="M125.57 239.44c2.58 7.48-16.93 14.95-5.85 28.14" id="path8"
            style="stroke:#f3c571;stroke-width:5px;fill:none" />
         <path id="AZ"
            d="M96.72 54.1S79.64 80.09 83.3 88.28c3.66 8.19 23.94 11.85 20.95 21.83-2.2 7.33-21.06 3.89-24.94 13.3-3.88 9.41 27.15 21.07 18.29 34.92-7.83 12.23-2.3 25.04 5.32 33.25 8.65 9.31 18.48 13 19.12 20.25-1.58 3.59-1.77 8.31-2 13.41 0 20.29 17.03 21.68 30.22 4.1 5.2-6.93 12.71-11.56 16.01-11.25 3.3.31 8.48 4.99 12.47 8.48 3.77 3.3 13.22 11.59 23.11 7.32 16.41-7.09-1.82-37.13 6.09-57.75 10.2-26.6 36.36-28.38 48.77-44.78"
            style="stroke:#e08584;stroke-linecap:round;stroke-linejoin:round;stroke-width:6px;fill:none" />
         <path class="cls-10" id="line8" d="m102.47 195.64 4.63 4.05" />
         <path class="cls-10" id="line9" d="m106.4 190.68 4.61 4.07" />
         <path class="cls-10" id="line10" d="m155.73 219.43 5.26-3.2" />
         <path class="cls-10" id="line11" d="m159.02 224.83 5.29-3.15" />
      </g>
      <g id="houses">
         <path class="cls-3" transform="rotate(66.61 69.684 203.87)" id="rect11"
            d="M67.16 198.4h5.05v10.97h-5.05z" />
         <path class="cls-3" transform="rotate(84.8 81.8 200.09)" id="rect12"
            d="M79.39 196.71h4.83v6.74h-4.83z" />
         <path class="cls-3" id="polygon12"
            d="m113.82 168.42-3.14 11.91-2.89 4.26-4.82-3.28 2.56-3.77 2.48-10.29z" />
         <path class="cls-3" transform="rotate(-62.06 96.35 78.371)" id="rect13"
            d="M93.18 73.81h6.33v9.11h-6.33z" />
         <path class="cls-3" transform="rotate(28.24 100.86 66.244)" id="rect14"
            d="M97.79 59.34h6.18v13.84h-6.18z" />
      </g>
      <path class="cls-4"
         d="m46.05 55.28 15 50.25-14 47.75 13 54.25-12.5 58 206.36.28 11.89-58.53-12.75-54.2 16-47.54-14.48-50.55s-207.77.05-208.52.3z"
         stroke="#ccc" stroke-width=".742" id="path14" />
   </g>
   <g transform="matrix(.37774 0 0 .38058 131.63 53.021)" id="g36" style="display:inline">
      <circle cx="174.91" cy="153.14" r="229.32" fill="#376feb" stroke-width="0" id="circle35"
         style="stroke-width:0;fill:#2563eb" />
      <path
         d="M296.67 235.48c-27.695 7.145-55.945-9.512-63.093-37.207h53.379a6.454 6.454 0 0 0 5.901-9.106L268.975 135.7a36.72 36.72 0 0 1 1.798-.509c27.683-7.148 55.933 9.5 63.093 37.196 7.145 27.695-9.512 55.945-37.196 63.09zm-39.56-94.578 19.859 44.433h-45.043c0-18.205 9.578-35.08 25.183-44.433zm-38.121 44.433h-12.948l32.366-86.308 13.411 29.99a64.718 64.718 0 0 0-32.828 56.318zm-26.519-.69-81.062-89.928h114.78zm-68.723 22.064c-11.807 26.057-42.488 37.592-68.545 25.796-26.045-11.807-37.593-42.5-25.785-68.545 9.762-21.54 32.886-33.732 56.171-29.617l-15.185 49.07a6.465 6.465 0 0 0 4.263 8.107c3.412 1.052 7.043-.859 8.095-4.263l15.201-49.081c26.041 11.795 37.589 42.488 25.785 68.533zm221.51-41.436c-11.081-33.993-47.621-52.563-81.603-41.478L244.87 81.77l4.862-12.949H264.3V55.884h-55.018a3.234 3.234 0 0 0-3.157 2.477 3.238 3.238 0 0 0 2.4 3.902l27.376 6.562-4.848 12.945h-115.63l5.19-16.77a12.947 12.947 0 0 1 12.371-9.116h21.273V42.935h-21.273c-11.353 0-21.382 7.385-24.733 18.233l-18.804 60.737c-30.173-6.127-60.481 9.85-72.478 38.201-13.935 32.921 1.471 70.91 34.389 84.841 32.921 13.93 70.905-1.46 84.84-34.377 13.931-32.921-1.46-70.91-34.393-84.841l5.149-16.625 76.524 84.907a12.927 12.927 0 0 0 9.613 4.263h27.21a62.504 62.504 0 0 0 1.88 7.125c11.081 33.997 47.621 52.567 81.603 41.482 33.997-11.07 52.552-47.61 41.482-81.607"
         fill="#fff" id="path35" />
   </g>
   <g id="Lupe" transform="translate(-61.951 -73.978) scale(1.3453)" style="display:inline">
      <path
         d="m89.28 254.17-10.29-10.29c-.68-.68-.77-1.69-.21-2.26l62.78-56.4c.56-.56 1.58-.47 2.26.21l3.91 3.91c.68.68.77 1.69.21 2.26l-56.4 62.78c-.56.56-1.58.47-2.26-.21z"
         id="path38" style="fill:#000;stroke-width:8.23px;stroke-miterlimit:10;stroke:#000" />
      <circle cx="193.33" cy="139.83" r="66" stroke-width="11.5" id="circle38"
         style="stroke-miterlimit:10;stroke:#000;stroke-width:10px;fill:none" />
   </g>
</svg>
