<svg xmlns="http://www.w3.org/2000/svg" fill="none" viewBox="0 0 40 40">
    <g clip-path="url(#a)" opacity=".9">
        <rect width="40" height="40" fill="#05cb63" rx="20"/>
        <path fill="#fff" d="M23.29 18.781c.285-.172.662-.042.815.214.154.257 4.699 8.63 4.844 8.89.288.517-.272 1.07-.802.784-.267-.144-8.656-4.583-9.002-4.76s-.43-.48-.245-.81c.095-.167.299-.5.465-.77.229-.37.562-.37.75-.26s2.85 1.509 3.025 1.605c.406.224 1.006-.29.738-.738a176 176 0 0 1-1.609-2.938c-.162-.307-.117-.584.245-.768.179-.09.5-.28.777-.449m-4.942-8.39c.176-.517.814-.519 1.074-.019.092.178 3.604 6.543 3.726 6.813a.57.57 0 0 1-.233.74c-.277.173-.729.431-.886.53-.285.176-.557.052-.687-.222s-1.133-2.042-1.541-2.793c-.204-.375-.819-.519-1.026.087l-.68 1.993a.74.74 0 0 1-.45.448l-2.046.677c-.404.134-.6.753-.055 1.013.114.055 2.569 1.372 2.822 1.492s.394.468.246.714a32 32 0 0 1-.555.902.576.576 0 0 1-.751.178c-.269-.141-6.855-3.631-7.019-3.72-.447-.243-.365-.872.198-1.033.478-.136 4.355-1.435 5.53-1.829a.71.71 0 0 0 .448-.443z"/>
    </g>
    <defs>
        <clipPath id="a">
            <rect width="40" height="40" fill="#fff" rx="20"/>
        </clipPath>
    </defs>
</svg>
