<svg height="25.062" viewBox="0 0 60 25.062" width="60" xmlns="http://www.w3.org/2000/svg"><path d="m439.8 92.019v-1.191h-2.268l2.544-4.212h-4.466v1.19h2.122l-2.56 4.212z" transform="translate(-435.172 -82.86)"/><path d="m445.744 92.141a2.334 2.334 0 0 0 1.782-.672 2.193 2.193 0 0 0 .608-1.75v-3.1h-1.4v3.078a1.184 1.184 0 0 1 -.315.98 1 1 0 0 1 -1.313-.024 1.093 1.093 0 0 1 -.275-.834v-3.2h-1.4v3.1a2.521 2.521 0 0 0 .526 1.773 2.412 2.412 0 0 0 1.787.649z" transform="translate(-437.852 -82.862)"/><path d="m453.48 89.678 1.831 2.341h1.814l-2.341-2.843 2.147-2.56h-1.731l-1.717 2.227v-2.226h-1.4v5.4h1.4z" transform="translate(-441.204 -82.86)"/><path d="m464.742 86.617h-1.4v3.078a1.184 1.184 0 0 1 -.316.98 1 1 0 0 1 -1.312-.024 1.092 1.092 0 0 1 -.276-.834v-3.2h-1.4v3.1a2.521 2.521 0 0 0 .526 1.773 2.414 2.414 0 0 0 1.79.648 2.331 2.331 0 0 0 1.782-.672 2.191 2.191 0 0 0 .608-1.75z" transform="translate(-444.038 -82.862)"/><path d="m470.089 88.715 2.584 3.3h1.4v-5.4h-1.4v3.3l-2.584-3.3h-1.4v5.4h1.4z" transform="translate(-447.135 -82.86)"/><path d="m479.749 89.9h1.539v-1.194h-1.539v-.9h1.692v-1.19h-3.094v5.4h1.4z" transform="translate(-450.53 -82.86)"/><path d="m484.562 92.019h1.4v-4.212h1.15v-1.19h-3.7v1.19h1.15z" transform="translate(-452.347 -82.86)"/><path d="m438.8 99.106h-1.539v-.9h1.693v-1.19h-3.094v5.4h1.4v-2.116h1.54z" transform="translate(-435.394 -86.623)"/><path d="m444.068 97.016h-1.531l-2.073 5.4h1.482l.364-.907h1.961l.332.907h1.5zm-1.369 3.427.591-1.75.608 1.75z" transform="translate(-436.89 -86.623)"/><path d="m449.739 97.016v5.4h1.4v-2.187h2.025v2.187h1.409v-5.4h-1.409v2.017h-2.025v-2.017z" transform="translate(-440.367 -86.623)"/><path d="m462.552 98.709a1.779 1.779 0 0 0 -.462-1.215 1.745 1.745 0 0 0 -1.32-.478h-2.187v5.4h1.4v-2.073l1.345 2.073h1.742l-1.693-2.211a1.509 1.509 0 0 0 .745-.373 1.555 1.555 0 0 0 .43-1.123zm-1.62.511a1.057 1.057 0 0 1 -.681.218h-.267v-1.338h.267a.956.956 0 0 1 .673.211.64.64 0 0 1 .186.454.674.674 0 0 1 -.177.455z" transform="translate(-443.517 -86.623)"/><path d="m467.509 100.345 1.345 2.073h1.741l-1.693-2.211a1.514 1.514 0 0 0 .746-.373 1.558 1.558 0 0 0 .429-1.126 1.778 1.778 0 0 0 -.461-1.215 1.746 1.746 0 0 0 -1.32-.478h-2.187v5.4h1.4zm0-2.244h.267a.955.955 0 0 1 .673.211.638.638 0 0 1 .186.454.674.674 0 0 1 -.178.454 1.055 1.055 0 0 1 -.681.218h-.267z" transform="translate(-446.199 -86.623)"/><path d="m472.876 102.419h1.482l.364-.907h1.961l.332.907h1.5l-2.033-5.4h-1.531zm2.827-3.726.607 1.75h-1.2z" transform="translate(-448.636 -86.623)"/><path d="m483.99 97.016h-1.839v5.4h1.961a2.936 2.936 0 0 0 2.073-.818 2.493 2.493 0 0 0 .7-1.871 2.638 2.638 0 0 0 -.753-1.968 3.013 3.013 0 0 0 -2.142-.743zm1.029 3.823a1.613 1.613 0 0 1 -1.183.389h-.283v-3.021h.34a1.577 1.577 0 0 1 1.118.34 1.617 1.617 0 0 1 .421 1.183 1.471 1.471 0 0 1 -.414 1.109z" transform="translate(-451.924 -86.623)"/><path d="m512.049 90.773a9.686 9.686 0 0 0 -5.1-.5.824.824 0 0 0 -.582.313.629.629 0 0 0 -.068.511c.12.514.611.494.967.435a8.433 8.433 0 0 1 4.423.465 8.739 8.739 0 0 1 5.6 8.033c-.032.228-.058.457-.084.685a11.133 11.133 0 0 1 -.232 1.468 8.65 8.65 0 0 1 -17.035-2.054 8.377 8.377 0 0 1 1.482-4.887l.034-.052a2.92 2.92 0 0 0 .283-.489.62.62 0 0 0 -.982-.671 1.5 1.5 0 0 0 -.27.333 9.919 9.919 0 0 0 8.114 15.624 10.2 10.2 0 0 0 2.03-.205 9.968 9.968 0 0 0 7.845-8.765 9.868 9.868 0 0 0 -6.425-10.244z" transform="translate(-458.52 -84.929)"/><path d="m499.584 85.9c2.248 4.6 5.562 11.363 5.647 11.479a.674.674 0 0 0 .537.254.606.606 0 0 0 .562-.856c-.049-.13-2.06-4.263-4-8.261-1.485-3.054-2.894-5.95-3.122-6.433l.043-.012a.488.488 0 0 1 .124-.026h.916c1.166 0 2.371 0 3.556.009a1.222 1.222 0 0 1 1.233 1.04 1.24 1.24 0 0 1 -.919 1.4 2.113 2.113 0 0 1 -.23.053c-.056.011-.112.021-.167.035-.394.1-.612.358-.569.682a.628.628 0 0 0 .69.532h.027a2.584 2.584 0 0 0 .759-.12 2.528 2.528 0 0 0 -.7-4.918c-1.66-.034-3.351-.024-4.984-.013h-.8a.716.716 0 0 0 -.62.272.74.74 0 0 0 -.017.7c.013.032.61 1.259 1.466 3.012h-5.652a.591.591 0 1 0 0 1.182h6.174c.013-.002.028-.011.046-.011z" transform="translate(-456.042 -80.73)"/></svg>